<svg xmlns="http://www.w3.org/2000/svg" viewBox="0 0 303.49 165.95"><g id="Capa_2" data-name="Capa 2"><g id="Capa2"><g id="_6_10" data-name="6_10"><path d="M276,56.3H206.7a54.66,54.66,0,0,0-109.31,0H27.51A25.73,25.73,0,0,0,1.75,82v56.48a25.74,25.74,0,0,0,25.76,25.72H276a25.75,25.75,0,0,0,25.77-25.72V82A25.74,25.74,0,0,0,276,56.3Z" style="fill:#efefef;stroke:#a42fc1;stroke-miterlimit:10;stroke-width:3.491700518738992px"/><text transform="translate(113.01 138.34)" style="font-size:28.460514068603516px;fill:#a42fc1;font-family:Arial-BoldMT, Arial;font-weight:700">Score</text><text transform="translate(127.86 64.78)" style="font-size:24.418603897094727px;fill:#a42fc1;font-family:Arial-BoldMT, Arial;font-weight:700">6/10</text><rect x="247.68" y="73.51" width="27.91" height="6.98" rx="2" style="fill:#bc3131"/><rect x="27.91" y="73.51" width="41.86" height="6.98" rx="1.8" style="fill:#30bf6a"/><path d="M127.14,22.43a41.61,41.61,0,0,1,24.61-8" style="fill:none;stroke:#b3b3b3;stroke-linecap:round;stroke-miterlimit:10;stroke-width:4.061248210275024px"/><path d="M111.92,43.36a41.94,41.94,0,0,1,15.22-20.93" style="fill:none;stroke:#b3b3b3;stroke-linecap:round;stroke-miterlimit:10;stroke-width:4.061248210275024px"/><path d="M111.92,43.36a42.26,42.26,0,0,0,0,25.88" style="fill:none;stroke:#b3b3b3;stroke-linecap:round;stroke-miterlimit:10;stroke-width:4.061248210275024px"/><path d="M127.14,90.17a41.94,41.94,0,0,1-15.22-20.93" style="fill:none;stroke:#b3b3b3;stroke-linecap:round;stroke-miterlimit:10;stroke-width:4.061248210275024px"/><path d="M127.14,90.17a41.61,41.61,0,0,0,24.61,8" style="fill:none;stroke:#b3b3b3;stroke-linecap:round;stroke-miterlimit:10;stroke-width:4.061248210275024px"/><path d="M176.36,90.17a41.66,41.66,0,0,1-24.61,8" style="fill:none;stroke:#b3b3b3;stroke-linecap:round;stroke-miterlimit:10;stroke-width:4.061248210275024px"/><path d="M191.57,69.24a41.92,41.92,0,0,1-15.21,20.93" style="fill:none;stroke:#b3b3b3;stroke-linecap:round;stroke-miterlimit:10;stroke-width:4.061248210275024px"/><path d="M191.57,43.36a42.06,42.06,0,0,1,0,25.88" style="fill:none;stroke:#b3b3b3;stroke-linecap:round;stroke-miterlimit:10;stroke-width:4.061248210275024px"/><path d="M176.36,22.43a41.92,41.92,0,0,1,15.21,20.93" style="fill:none;stroke:#b3b3b3;stroke-linecap:round;stroke-miterlimit:10;stroke-width:4.061248210275024px"/><path d="M176.36,22.43a41.66,41.66,0,0,0-24.61-8" style="fill:none;stroke:#b3b3b3;stroke-linecap:round;stroke-miterlimit:10;stroke-width:4.061248210275024px"/><path d="M127.14,22.43a41.61,41.61,0,0,1,24.61-8" style="fill:none;stroke:#b3b3b3;stroke-linecap:round;stroke-miterlimit:10;stroke-width:4.061248210275024px"/><path d="M111.92,43.36a41.94,41.94,0,0,1,15.22-20.93" style="fill:none;stroke:#b3b3b3;stroke-linecap:round;stroke-miterlimit:10;stroke-width:4.061248210275024px"/><path d="M111.92,43.36a42.26,42.26,0,0,0,0,25.88" style="fill:none;stroke:#b3b3b3;stroke-linecap:round;stroke-miterlimit:10;stroke-width:4.061248210275024px"/><path d="M127.14,90.17a41.94,41.94,0,0,1-15.22-20.93" style="fill:none;stroke:#b3b3b3;stroke-linecap:round;stroke-miterlimit:10;stroke-width:4.061248210275024px"/><path d="M127.14,90.17a41.61,41.61,0,0,0,24.61,8" style="fill:none;stroke:#a42fc1;stroke-linecap:round;stroke-miterlimit:10;stroke-width:4.061248210275024px"/><path d="M176.36,90.17a41.66,41.66,0,0,1-24.61,8" style="fill:none;stroke:#a42fc1;stroke-linecap:round;stroke-miterlimit:10;stroke-width:4.061248210275024px"/><path d="M191.57,69.24a41.92,41.92,0,0,1-15.21,20.93" style="fill:none;stroke:#a42fc1;stroke-linecap:round;stroke-miterlimit:10;stroke-width:4.061248210275024px"/><path d="M191.57,43.36a42.06,42.06,0,0,1,0,25.88" style="fill:none;stroke:#a42fc1;stroke-linecap:round;stroke-miterlimit:10;stroke-width:4.061248210275024px"/><path d="M176.36,22.43a41.92,41.92,0,0,1,15.21,20.93" style="fill:none;stroke:#a42fc1;stroke-linecap:round;stroke-miterlimit:10;stroke-width:4.061248210275024px"/><path d="M176.36,22.43a41.66,41.66,0,0,0-24.61-8" style="fill:none;stroke:#a42fc1;stroke-linecap:round;stroke-miterlimit:10;stroke-width:4.061248210275024px"/></g></g></g></svg>